<?xml version="1.0" encoding="utf-8"?>
<!-- Generator: Adobe Illustrator 27.5.0, SVG Export Plug-In . SVG Version: 6.00 Build 0)  -->
<svg version="1.1" xmlns="http://www.w3.org/2000/svg" xmlns:xlink="http://www.w3.org/1999/xlink" x="0px" y="0px"
	 viewBox="0 0 750 500" style="enable-background:new 0 0 750 500;" xml:space="preserve">
<g id="BACKGROUND">
	<rect y="0.001" style="fill-rule:evenodd;clip-rule:evenodd;fill:#FFFFFF;" width="750" height="500"/>
</g>
<g id="OBJECTS">
	<g>
		<g>
			<path style="fill-rule:evenodd;clip-rule:evenodd;fill:#322E70;" d="M529.644,244.03c-7.645,0.584-8.67,28.976,17.982,28.677
				c0,0,2.363,32.908,36.326,22.488c33.963-10.42,9.404-37.309,9.404-37.309s-22.719-17.641-24.803-17.501
				c-2.084,0.141-27.525-6.214-27.525-6.214S535.552,243.362,529.644,244.03z"/>
			<path style="fill-rule:evenodd;clip-rule:evenodd;fill:#EDBF5B;" d="M603.462,253.022c0,0,8.414-16.182,31.703-25.708
				c23.287-9.528,34.947,45.685,34.947,45.685l-19.539,51.154c-1.002,18.453-2.697,38.533-2.697,38.533s16.09,58.857-18.844,35.949
				c-34.93-22.908-58.221-60.932-57.797-75.328c0.424-14.395,10.543-44.246,10.543-44.246l9.994-4.021c0,0,4.004,1.127,9.916,2.84
				l-9.857-12.674C598.364,257.409,603.462,253.022,603.462,253.022z"/>
			<path style="fill-rule:evenodd;clip-rule:evenodd;fill:#DF9258;" d="M635.149,360.278c0.189,0.27,0.127,0.645-0.143,0.834
				c-0.268,0.191-0.641,0.129-0.834-0.141c-0.049-0.068-17.119-24.09-25.623-36.637c-0.186-0.273-0.115-0.647,0.158-0.83
				c0.271-0.185,0.646-0.113,0.83,0.16C617.968,336.096,635.101,360.21,635.149,360.278z"/>
			<path style="fill-rule:evenodd;clip-rule:evenodd;fill:#D77B9D;" d="M630.845,384.018c0,0-6.129-2.955-7.85-5.133
				c-4.396-5.566-0.422-9.484,5.783-5.057c2.822,2.012,5.965,4.785,5.965,4.785L630.845,384.018z"/>
			<path style="fill-rule:evenodd;clip-rule:evenodd;fill:#DF9258;" d="M615.616,332.53c0.248,0.219,0.268,0.6,0.045,0.844
				c-0.221,0.248-0.602,0.268-0.846,0.045c-0.02-0.016-6.639-6.059-14.068-9.512c-0.299-0.137-0.432-0.492-0.291-0.793
				c0.137-0.301,0.492-0.432,0.793-0.293C608.851,326.354,615.597,332.51,615.616,332.53z"/>
			<path style="fill-rule:evenodd;clip-rule:evenodd;fill:#D77B9D;" d="M632.952,207.251c0,0-6.721,1.059-8.996,2.646
				c-5.82,4.059-3.147,8.956,4.074,6.511c3.281-1.111,7.092-2.859,7.092-2.859L632.952,207.251z"/>
			<g>
				<rect x="629.032" y="70.24" style="fill-rule:evenodd;clip-rule:evenodd;fill:#322E70;" width="82.145" height="383.819"/>
				<path style="fill-rule:evenodd;clip-rule:evenodd;fill:#4D438D;" d="M670.337,70.241h-0.463v17.982H643.61h-0.012h-14.566v0.641
					h14.34v21.061h-14.34v0.64h14.566h0.006h0.006h26.264v21.061H643.61h-0.012h-14.566v0.64h14.34v21.061h-14.34v0.641h14.566
					h0.006h0.006h26.264v21.059H643.61h-0.012h-14.566v0.64h14.34v21.061h-14.34v0.641h14.566h0.006h0.006h26.264v21.06H643.61
					h-0.012h-14.566v0.643h14.34v21.059h-14.34v0.64h14.566h0.006h0.006h26.264v21.06H643.61h-0.012h-14.566v0.641h14.34v21.06
					h-14.34v0.641h14.566h0.006h0.006h26.264v21.059H643.61h-0.012h-14.566v0.643h14.34v21.059h-14.34v0.643h14.566h0.006h0.006
					h26.264v21.06H643.61h-0.012h-14.566v0.639h14.34v21.06h-14.34v0.641h14.566h0.006h0.006h26.264v21.06H643.61h-0.012h-14.566
					v0.641h14.34v21.059h-14.34v0.643h14.566h0.006h0.006h26.264v21.059H643.61h-0.012h-14.566v0.643h14.34v17.982h0.465v-17.982
					h26.262h0.006h0.008h26.266v17.982h0.463v-17.982h14.336v-0.643h-14.563h-0.012h-26.266v-21.059h26.266h0.006h0.006h14.563
					v-0.643h-14.336v-21.059h14.336v-0.641h-14.563h-0.012h-26.266v-21.06h26.266h0.006h0.006h14.563v-0.641h-14.336v-21.06h14.336
					v-0.639h-14.563h-0.012h-26.266v-21.06h26.266h0.006h0.006h14.563v-0.643h-14.336v-21.059h14.336v-0.643h-14.563h-0.012h-26.266
					V284.17h26.266h0.006h0.006h14.563v-0.641h-14.336v-21.06h14.336v-0.641h-14.563h-0.012h-26.266v-21.06h26.266h0.006h0.006
					h14.563v-0.64h-14.336v-21.059h14.336v-0.643h-14.563h-0.012h-26.266v-21.06h26.266h0.006h0.006h14.563v-0.641h-14.336v-21.061
					h14.336v-0.64h-14.563h-0.012h-26.266v-21.059h26.266h0.006h0.006h14.563v-0.641h-14.336v-21.061h14.336v-0.64h-14.563h-0.012
					h-26.266v-21.061h26.266h0.006h0.006h14.563v-0.64h-14.336V88.864h14.336v-0.641h-14.563h-0.012h-26.266V70.241L670.337,70.241z
					 M643.837,392.674h26.262h0.006h0.008h26.266v21.059h-26.266h-0.014h-26.262V392.674L643.837,392.674z M643.837,349.272h26.262
					h0.006h0.008h26.266v21.06h-26.266h-0.014h-26.262V349.272L643.837,349.272z M643.837,305.872h26.262h0.006h0.008h26.266v21.059
					h-26.266h-0.014h-26.262V305.872L643.837,305.872z M643.837,262.469h26.262h0.006h0.008h26.266v21.06h-26.266h-0.014h-26.262
					V262.469L643.837,262.469z M643.837,219.069h26.262h0.006h0.008h26.266v21.059h-26.266h-0.014h-26.262V219.069L643.837,219.069z
					 M643.837,175.666h26.262h0.006h0.008h26.266v21.061h-26.266h-0.014h-26.262V175.666L643.837,175.666z M643.837,132.265h26.262
					h0.006h0.008h26.266v21.061h-26.266h-0.014h-26.262V132.265L643.837,132.265z M643.837,88.864h26.262h0.006h0.008h26.266v21.061
					h-26.266h-0.014h-26.262V88.864z"/>
			</g>
			<path style="fill-rule:evenodd;clip-rule:evenodd;fill:#322E70;" d="M582.864,273.038c-7.066,22.719,22.014,31.598,23.66,9.254
				C607.71,266.256,582.864,273.038,582.864,273.038z"/>
			<path style="fill-rule:evenodd;clip-rule:evenodd;fill:#322E70;" d="M606.442,255.415c0,0,7.953,15.861-1.297,27.6
				c20.947,14.957,33.844-24.666,1.67-34.498C579.642,240.21,606.442,255.415,606.442,255.415z"/>
			<path style="fill-rule:evenodd;clip-rule:evenodd;fill:#DC8DA2;" d="M570.224,233.142L570.224,233.142
				c-7.592,5.973-8.918,17.069-2.945,24.661l15.477,19.672c5.973,7.592,17.068,8.918,24.66,2.945l0,0
				c7.592-5.973,8.918-17.07,2.943-24.662l-15.475-19.672C588.911,228.494,577.815,227.169,570.224,233.142z"/>
			<path style="fill-rule:evenodd;clip-rule:evenodd;fill:#C75E94;" d="M570.034,261.307l12.721,16.168
				c2.621,3.332,6.231,5.457,10.096,6.287l12.057-34.932l-9.494-12.069L570.034,261.307z"/>
			<path style="fill-rule:evenodd;clip-rule:evenodd;fill:#C75E94;" d="M543.052,231.895c4.916-0.028,8.924,3.933,8.951,8.851
				c0.029,4.916-3.934,8.925-8.85,8.955c-4.914,0.028-8.924-3.935-8.953-8.851C534.171,235.934,538.134,231.925,543.052,231.895z"/>
			<path style="fill-rule:evenodd;clip-rule:evenodd;fill:#C75E94;" d="M605.378,231.63c0.219,0.033,0.435,0.071,0.65,0.119
				l0.008,0.002h-0.002c3.959,0.883,6.928,4.406,6.955,8.636c0.027,4.916-3.935,8.925-8.852,8.955
				c-4.916,0.028-8.926-3.935-8.953-8.849c-0.019-2.858,1.315-5.409,3.397-7.049c-0.262,2.624,0.113,5.883,3.465,6.252l-0.029-5.132
				C602.003,232.484,603.954,231.554,605.378,231.63z"/>
			<path style="fill-rule:evenodd;clip-rule:evenodd;fill:#DC8DA2;" d="M571.243,186.71L571.243,186.71
				c16.772-0.098,30.572,13.542,30.67,30.313l0.162,27.711c0.1,16.769-13.543,30.572-30.314,30.669l0,0
				c-16.768,0.1-30.57-13.541-30.668-30.312l-0.164-27.709C540.831,200.609,554.47,186.809,571.243,186.71z"/>
			<g>
				<path style="fill-rule:evenodd;clip-rule:evenodd;fill:#C75E94;" d="M549.829,246.143c2.213-0.013,4.018,1.771,4.031,3.984
					c0.012,2.213-1.772,4.02-3.984,4.032c-2.213,0.012-4.019-1.771-4.033-3.985C545.831,247.96,547.616,246.156,549.829,246.143z"/>
				<path style="fill-rule:evenodd;clip-rule:evenodd;fill:#C75E94;" d="M584.31,245.939c2.213-0.011,4.018,1.771,4.031,3.984
					c0.014,2.216-1.771,4.018-3.986,4.032c-2.213,0.014-4.02-1.771-4.031-3.984C580.312,247.758,582.097,245.952,584.31,245.939z"/>
			</g>
			<g>
				<path style="fill-rule:evenodd;clip-rule:evenodd;fill:#322E70;" d="M574.997,253.253c0.113,4.355-3.324,7.978-7.678,8.092
					c-4.357,0.115-7.979-3.322-8.092-7.678h0.014c-0.02-0.75,0.576-1.377,1.324-1.398l13.021-0.34
					c0.748-0.02,1.377,0.576,1.396,1.324H574.997z"/>
				<path style="fill-rule:evenodd;clip-rule:evenodd;fill:#C75E94;" d="M572.22,259.469c-1.324,1.125-3.029,1.826-4.9,1.875
					c-1.531,0.039-2.971-0.359-4.199-1.08c0.563-1.635,2.301-2.893,4.43-3.027C569.585,257.106,571.394,258.036,572.22,259.469z"/>
				<path style="fill-rule:evenodd;clip-rule:evenodd;fill:#FFFFFF;" d="M560.392,252.288l12.236-0.322
					c0.232,1.35-0.359,2.732-1.262,3.055c-1.098,0.391-9.959,0.391-10.604-0.289C560.45,254.403,560.38,253.317,560.392,252.288z"/>
			</g>
			<path style="fill-rule:evenodd;clip-rule:evenodd;fill:#322E70;" d="M548.747,232.813c-0.465,0.233-1.033,0.044-1.266-0.422
				c-0.232-0.466-0.043-1.035,0.42-1.267c2.441-1.258,5.707-1.404,8.103,0.033c0.443,0.268,0.592,0.852,0.324,1.297
				c-0.268,0.446-0.852,0.594-1.297,0.326C553.108,231.626,550.696,231.883,548.747,232.813z"/>
			<path style="fill-rule:evenodd;clip-rule:evenodd;fill:#322E70;" d="M585.462,232.816c-1.951-0.933-4.361-1.191-6.287-0.037
				c-0.447,0.268-1.031,0.121-1.297-0.326c-0.268-0.445-0.119-1.03,0.324-1.297c2.396-1.437,5.662-1.292,8.102-0.035
				c0.467,0.233,0.654,0.802,0.424,1.268C586.491,232.857,585.923,233.046,585.462,232.816z"/>
			<path style="fill-rule:evenodd;clip-rule:evenodd;fill:#322E70;" d="M551.237,236.293L551.237,236.293
				c-0.537,0-1.033,0.193-1.422,0.515c-0.162-0.043-0.441-0.156-0.6-0.458c-0.092-0.175-0.305-0.243-0.478-0.154
				c-0.174,0.091-0.242,0.304-0.152,0.48c0.184,0.356,0.465,0.566,0.723,0.69l-0.018,0.02c-0.301-0.07-0.65-0.227-0.93-0.569
				c-0.121-0.15-0.348-0.173-0.498-0.049c-0.152,0.123-0.174,0.346-0.051,0.499c0.31,0.382,0.691,0.602,1.047,0.725l-0.004,0.006
				c-0.334-0.02-0.705-0.112-1.068-0.342c-0.164-0.106-0.385-0.056-0.49,0.109c-0.104,0.165-0.055,0.387,0.111,0.491
				c0.369,0.237,0.746,0.362,1.102,0.419l0.496,0.07v2.696c0,1.229,1.004,2.233,2.233,2.233l0,0c1.228,0,2.234-1.004,2.234-2.233
				v-2.913C553.472,237.299,552.466,236.293,551.237,236.293z"/>
			<path style="fill-rule:evenodd;clip-rule:evenodd;fill:#322E70;" d="M582.97,236.293L582.97,236.293
				c0.539,0,1.035,0.193,1.42,0.515c0.164-0.043,0.445-0.156,0.602-0.458c0.09-0.175,0.303-0.243,0.479-0.154
				c0.176,0.091,0.242,0.304,0.152,0.48c-0.182,0.356-0.465,0.566-0.721,0.69l0.016,0.02c0.301-0.07,0.648-0.227,0.928-0.569
				c0.125-0.15,0.35-0.173,0.5-0.049c0.15,0.123,0.174,0.346,0.051,0.499c-0.311,0.382-0.691,0.602-1.047,0.725l0.006,0.006
				c0.334-0.02,0.705-0.112,1.066-0.342c0.166-0.106,0.385-0.056,0.492,0.109c0.102,0.165,0.053,0.387-0.113,0.491
				c-0.371,0.237-0.748,0.362-1.102,0.419l-0.496,0.07v2.696c0,1.229-1.002,2.233-2.232,2.233l0,0c-1.229,0-2.234-1.004-2.234-2.233
				v-2.913C580.735,237.299,581.741,236.293,582.97,236.293z"/>
			<path style="fill-rule:evenodd;clip-rule:evenodd;fill:#322E70;" d="M593.28,233.021c-0.914-1.055-2.648-2.421-3.689-3.202
				c-0.266-0.213-0.539-0.417-0.824-0.609c-0.012-0.008-0.018-0.013-0.018-0.013v0.002c-2.012-1.347-4.43-2.132-7.033-2.132
				c-3.506,0-6.678,1.424-8.973,3.725c-1.109,1.037-2.066,2.173-3.057,3.286c-1.252,1.411-1.994,0.718-3.248,0.718
				s-1.994,0.693-3.248-0.718c-0.992-1.113-1.949-2.249-3.057-3.286c-2.295-2.301-5.506-3.725-9.012-3.725
				c-2.602,0-5.176,0.786-7.072,2.132v-0.002c0,0,0.031,0.005,0.021,0.013c-0.285,0.192-0.541,0.396-0.809,0.609
				c-1.203,1.606-6.557,5.486-4.406,13.035c0.182,0.719,0.441,1.413,0.742,2.077c0.279,0.66,0.605,1.272,0.979,1.773l0.006-0.003
				c2.264,3.432,6.156,5.697,10.576,5.697c5.131,0,9.549-3.054,11.539-7.442c0.002-0.005,0.006-0.008,0.01-0.013
				c0.01-0.017,0.02-0.031,0.029-0.048c0.91-1.545,1.826-5.771,2.24-6.442c0.416-0.68,1.461-0.731,1.461-0.731
				s1.045,0.051,1.463,0.731c0.414,0.671,1.33,4.898,2.238,6.442c0.01,0.017,0.018,0.031,0.029,0.048
				c0.002,0.005,0.004,0.008,0.008,0.013c1.992,4.388,6.408,7.442,11.539,7.442c4.422,0,8.309-2.265,10.574-5.697l0.002,0.003
				c0.373-0.501,0.693-1.113,0.975-1.773c0.299-0.665,0.547-1.358,0.729-2.077c0.596-2.02,0.932-3.948,1.27-4.349
				c0.576-0.68,6.752-0.575,6.752-0.575v-3.239C602.017,234.692,594.64,234.588,593.28,233.021L593.28,233.021z M551.159,250.676
				L551.159,250.676c-6.041,0-10.941-4.9-10.941-10.942c0-6.044,4.9-10.943,10.941-10.943c6.043,0,10.943,4.899,10.943,10.943
				C562.103,245.775,557.202,250.676,551.159,250.676L551.159,250.676z M581.716,250.676L581.716,250.676
				c-6.045,0-10.943-4.9-10.943-10.942c0-6.044,4.898-10.943,10.943-10.943c6.043,0,10.941,4.899,10.941,10.943
				C592.657,245.775,587.759,250.676,581.716,250.676z"/>
			<path style="fill-rule:evenodd;clip-rule:evenodd;fill:#E4ADBC;" d="M565.237,246.921c0,0-1.24,2.27-0.85,3.474
				c0.389,1.205,2.092,0.567,2.266-0.496c0.18-1.064-0.336-3.065-0.459-3.295C566.069,246.373,565.54,246.285,565.237,246.921z"/>
			<path style="fill-rule:evenodd;clip-rule:evenodd;fill:#322E70;" d="M602.056,241.49c0,0-5.617-2.117-5.617-10.691v-4.869
				c0,0-17.254-2.858-17.465-21.277c-42.508-8.12-17.525,39.378-49.33,39.378c11.473-2.297-4.158-44.266,15.455-63.303
				c14.396-13.973,46.894-14.926,54.729,12.596c0,0,11.432,1.905,11.644,13.55c0.211,11.644-5.104,24.959-5.104,24.959
				S602.05,230.674,602.056,241.49z"/>
			<path style="fill-rule:evenodd;clip-rule:evenodd;fill:#FFFFFF;" d="M607.614,242.501L607.614,242.501
				c1.031,0,1.879,0.845,1.879,1.879v1.165c0,1.034-0.848,1.879-1.879,1.879l0,0c-1.035,0-1.879-0.845-1.879-1.879v-1.165
				C605.735,243.346,606.579,242.501,607.614,242.501z"/>
			<path style="fill-rule:evenodd;clip-rule:evenodd;fill:#FFFFFF;" d="M607.614,250.344L607.614,250.344
				c0.889,0,1.615,0.725,1.615,1.616v0.588c0,0.889-0.727,1.615-1.615,1.615l0,0c-0.891,0-1.617-0.727-1.617-1.615v-0.588
				C605.997,251.069,606.724,250.344,607.614,250.344z"/>
			<path style="fill-rule:evenodd;clip-rule:evenodd;fill:#FFFFFF;" d="M607.241,244.962c0-0.265,0.168-0.48,0.373-0.48
				c0.205,0,0.369,0.215,0.369,0.48v6.986c0,0.266-0.164,0.482-0.369,0.482c-0.205,0-0.373-0.217-0.373-0.482V244.962z"/>
			<path style="fill-rule:evenodd;clip-rule:evenodd;fill:#4D438D;" d="M589.456,177.358
				c-10.588,11.685-30.594,28.581-53.719,22.339c1.162-5.94,3.234-11.577,6.894-16.227c11.287,2.097,27.939,2.32,42.559-8.829
				C586.677,175.409,588.107,176.313,589.456,177.358z"/>
			<g>
				<path style="fill-rule:evenodd;clip-rule:evenodd;fill:#DC8DA2;" d="M634.05,189.564c1.797-1.146,2.459-1.574,2.439-2.75
					c-0.043-2.731-3.867-3.51-7.506-3.883c-3.041-0.313-5.859-0.457-7.135-0.128c-3.09,0.794-2.57,4.064-0.936,5.802
					c0,0-6.078,2.313-0.889,6.798c-3.182,1.068-4.502,5.227-0.006,7.577c-1.377,6.591,6.738,7.129,11.594,6.843
					c4.519-0.267,5.402-3.772,2.269-5.345c2.578-0.636,3.543-2.089,3.691-3.447c0.184-1.656-0.975-3.232-3.467-3.764
					C638.407,195.757,638.353,190.485,634.05,189.564z"/>
				<path style="fill-rule:evenodd;clip-rule:evenodd;fill:#C75E94;" d="M634.56,190.076c0.252-0.073,0.395-0.328,0.318-0.57
					c-0.076-0.242-0.344-0.378-0.598-0.305c-0.012,0.002-5.072,0.475-10.227-0.85c-0.254-0.065-0.52,0.08-0.588,0.325
					c-0.066,0.244,0.086,0.496,0.34,0.561C629.212,190.627,634.548,190.08,634.56,190.076z"/>
				<path style="fill-rule:evenodd;clip-rule:evenodd;fill:#C75E94;" d="M624.454,203.332c-0.24-0.102-0.525,0.004-0.631,0.236
					c-0.109,0.231-0.002,0.503,0.238,0.604c0.016,0.006,5.084,2.094,10.545,0.961c0.258-0.053,0.428-0.298,0.375-0.544
					c-0.055-0.248-0.309-0.405-0.566-0.353C629.251,205.308,624.468,203.338,624.454,203.332z"/>
				<path style="fill-rule:evenodd;clip-rule:evenodd;fill:#C75E94;" d="M624.607,195.966c-0.252-0.073-0.522,0.064-0.598,0.305
					c-0.08,0.243,0.063,0.499,0.315,0.572c0.016,0.004,5.043,1.46,10.25,0.819c0.262-0.031,0.451-0.261,0.418-0.512
					c-0.031-0.251-0.27-0.429-0.533-0.397C629.456,197.369,624.62,195.969,624.607,195.966z"/>
			</g>
			<g>
				<path style="fill-rule:evenodd;clip-rule:evenodd;fill:#DC8DA2;" d="M636.843,386.71c1.801-1.147,2.461-1.574,2.441-2.75
					c-0.045-2.732-3.867-3.51-7.506-3.883c-3.039-0.313-5.861-0.457-7.137-0.129c-3.09,0.793-2.568,4.064-0.936,5.803
					c0,0-6.076,2.313-0.885,6.797c-3.184,1.068-4.504,5.227-0.01,7.578c-1.377,6.592,6.74,7.129,11.594,6.842
					c4.52-0.266,5.404-3.771,2.271-5.344c2.578-0.637,3.543-2.09,3.693-3.447c0.182-1.656-0.977-3.232-3.469-3.764
					C641.202,392.903,641.147,387.631,636.843,386.71z"/>
				<path style="fill-rule:evenodd;clip-rule:evenodd;fill:#C75E94;" d="M637.353,387.221c0.254-0.072,0.396-0.326,0.32-0.568
					c-0.078-0.242-0.344-0.379-0.598-0.307c-0.01,0.004-5.072,0.475-10.225-0.85c-0.258-0.064-0.519,0.082-0.59,0.326
					c-0.066,0.242,0.086,0.496,0.34,0.56C632.007,387.772,637.343,387.225,637.353,387.221z"/>
				<path style="fill-rule:evenodd;clip-rule:evenodd;fill:#C75E94;" d="M627.249,400.479c-0.24-0.104-0.525,0.002-0.633,0.234
					c-0.107,0.232-0.002,0.504,0.24,0.605c0.016,0.006,5.082,2.094,10.545,0.961c0.258-0.053,0.426-0.297,0.373-0.545
					c-0.053-0.248-0.307-0.404-0.565-0.352C632.046,402.454,627.263,400.483,627.249,400.479z"/>
				<path style="fill-rule:evenodd;clip-rule:evenodd;fill:#C75E94;" d="M627.401,393.112c-0.252-0.072-0.522,0.065-0.598,0.307
					c-0.08,0.24,0.063,0.498,0.314,0.57c0.014,0.004,5.045,1.461,10.25,0.82c0.262-0.031,0.449-0.262,0.418-0.514
					c-0.029-0.25-0.27-0.428-0.533-0.396C632.251,394.514,627.415,393.116,627.401,393.112z"/>
			</g>
		</g>
		<g>
			<path style="fill-rule:evenodd;clip-rule:evenodd;fill:#BBB3D6;" d="M336.707,372.821c0,0,3.387-16.514,27.098-25.193
				c23.711-8.682,39.834-10.783,39.834-10.783s8.803,4.918,10.707,5.658c1.906,0.74,27.315,8.15,33.666,11.324
				c6.352,3.176,14.186,13.975,17.148,25.617c2.965,11.645-55.891,12.068-60.125,10.586c-4.234-1.482-56.126-9.041-56.126-9.041
				L336.707,372.821z"/>
			<path style="fill-rule:evenodd;clip-rule:evenodd;fill:#322E70;" d="M376.946,346.495c23.147-8,26.693-9.65,26.693-9.65
				s7.467,4.17,10.135,5.408c2.365,9.037-0.635,19.06-8.414,25.184c-9.836,7.734-24.504,7.107-32.408-2.273
				C365.324,356.106,375.426,351.131,376.946,346.495z"/>
			<path style="fill-rule:evenodd;clip-rule:evenodd;fill:#DC8DA2;" d="M364.075,314.957L364.075,314.957
				c-7.592,5.973-8.917,17.068-2.945,24.66l15.477,19.674c5.971,7.592,17.068,8.916,24.662,2.943l0,0
				c7.592-5.971,8.916-17.068,2.943-24.66l-15.475-19.674C382.763,310.309,371.667,308.985,364.075,314.957z"/>
			<path style="fill-rule:evenodd;clip-rule:evenodd;fill:#C75E94;" d="M363.886,343.122l12.72,16.17
				c2.619,3.33,6.228,5.455,10.096,6.285l12.059-34.932l-9.494-12.068L363.886,343.122z"/>
			<path style="fill-rule:evenodd;clip-rule:evenodd;fill:#C75E94;" d="M396.607,307.563c0.232,0.01,0.463,0.025,0.691,0.051
				l0.008,0.002l-0.002-0.002c4.228,0.465,7.727,3.793,8.24,8.195c0.594,5.117-3.072,9.75-8.19,10.346
				c-5.117,0.596-9.748-3.07-10.344-8.188c-0.348-2.975,0.744-5.783,2.725-7.732c0.031,2.764,0.797,6.115,4.328,6.115l-0.621-5.344
				C393.19,308.842,395.114,307.649,396.607,307.563z"/>
			<path style="fill-rule:evenodd;clip-rule:evenodd;fill:#C75E94;" d="M333.035,313.745c-0.227,0.053-0.45,0.113-0.67,0.182
				l-0.007,0.002l0,0c-4.057,1.27-6.849,5.211-6.505,9.629c0.402,5.137,4.892,8.975,10.028,8.574
				c5.137-0.4,8.977-4.893,8.576-10.025c-0.233-2.988-1.847-5.533-4.167-7.064c0.503,2.719,0.397,6.154-3.068,6.834l-0.42-5.363
				C336.633,314.34,334.515,313.54,333.035,313.745z"/>
			<path style="fill-rule:evenodd;clip-rule:evenodd;fill:#DC8DA2;" d="M358.585,264.438l0.004-0.002
				c17.482-1.699,33.181,11.215,34.88,28.701l2.813,28.918c1.701,17.484-11.217,33.182-28.699,34.881l-0.005,0.002
				c-17.481,1.697-33.18-11.217-34.879-28.703l-2.812-28.916C328.187,281.835,341.104,266.135,358.585,264.438z"/>
			<g>
				<path style="fill-rule:evenodd;clip-rule:evenodd;fill:#FFFFFF;" d="M366.655,334.034c0.419,4.545-2.928,8.57-7.473,8.988
					c-4.547,0.418-8.571-2.928-8.99-7.473l0.014-0.002c-0.072-0.781,0.51-1.48,1.29-1.551l13.592-1.252
					c0.782-0.074,1.48,0.508,1.552,1.289H366.655z"/>
				<path style="fill-rule:evenodd;clip-rule:evenodd;fill:#FFFFFF;" d="M364.178,340.725c-1.307,1.268-3.041,2.117-4.997,2.297
					c-1.597,0.146-3.13-0.17-4.465-0.842c0.476-1.746,2.208-3.182,4.427-3.471C361.26,338.436,363.215,339.282,364.178,340.725z"/>
				<path style="fill-rule:evenodd;clip-rule:evenodd;fill:#FFFFFF;" d="M351.317,334.026l12.774-1.176
					c0.333,1.393-0.189,2.881-1.111,3.279c-1.121,0.484-10.389,1.094-11.109,0.428C351.522,336.235,351.375,335.106,351.317,334.026
					z"/>
			</g>
			<path style="fill-rule:evenodd;clip-rule:evenodd;fill:#C75E94;" d="M375.026,325.707c-2.312,0.182-4.041,2.203-3.86,4.516
				c0.181,2.313,2.202,4.043,4.514,3.861c2.314-0.182,4.042-2.201,3.861-4.516C379.358,327.256,377.337,325.528,375.026,325.707z"/>
			<path style="fill-rule:evenodd;clip-rule:evenodd;fill:#C75E94;" d="M341.199,328.309c-2.313,0.18-4.041,2.201-3.86,4.514
				c0.18,2.313,2.202,4.041,4.515,3.861c2.313-0.18,4.041-2.203,3.86-4.516C345.534,329.856,343.512,328.125,341.199,328.309z"/>
			<path style="fill-rule:evenodd;clip-rule:evenodd;fill:#322E70;" d="M345.821,323.383c0.063,0.654,0.645,1.133,1.297,1.068
				c0.652-0.064,1.131-0.645,1.068-1.297c-0.136-1.398-0.817-2.676-1.901-3.568c-1.085-0.891-2.47-1.314-3.867-1.178
				c-1.397,0.137-2.674,0.816-3.567,1.9c-0.892,1.086-1.313,2.471-1.179,3.867c0.064,0.654,0.645,1.131,1.298,1.068
				c0.654-0.064,1.132-0.646,1.068-1.299c-0.075-0.768,0.158-1.529,0.648-2.127c0.49-0.596,1.192-0.971,1.961-1.045
				c0.769-0.074,1.53,0.158,2.127,0.648C345.372,321.913,345.746,322.616,345.821,323.383z"/>
			<path style="fill-rule:evenodd;clip-rule:evenodd;fill:#322E70;" d="M376.374,320.415c0.064,0.652,0.647,1.131,1.297,1.066
				c0.654-0.063,1.133-0.645,1.068-1.297c-0.135-1.398-0.816-2.676-1.9-3.568c-1.084-0.891-2.469-1.314-3.868-1.178
				c-1.397,0.137-2.675,0.816-3.567,1.9c-0.892,1.086-1.314,2.471-1.179,3.867c0.064,0.654,0.645,1.131,1.298,1.068
				c0.653-0.064,1.131-0.645,1.067-1.299c-0.074-0.768,0.158-1.531,0.649-2.127c0.489-0.596,1.192-0.971,1.96-1.045
				c0.77-0.074,1.531,0.158,2.128,0.647C375.925,318.942,376.299,319.645,376.374,320.415z"/>
			<path style="fill-rule:evenodd;clip-rule:evenodd;fill:#322E70;" d="M337.83,310.575c2.291-1.373,5.203-1.986,7.709-0.795
				c0.588,0.279,1.3,0.025,1.58-0.564c0.279-0.586,0.024-1.297-0.564-1.578c-2.173-1.031-4.54-1.08-6.83-0.439
				c-1.041,0.291-2.235,0.777-3.148,1.367c-0.554,0.348-0.72,1.082-0.372,1.633C336.55,310.753,337.282,310.92,337.83,310.575z"/>
			<path style="fill-rule:evenodd;clip-rule:evenodd;fill:#322E70;" d="M376.175,306.844c0.609,0.234,1.298-0.07,1.529-0.682
				c0.236-0.609-0.068-1.295-0.678-1.529c-1.028-0.404-2.27-0.652-3.364-0.736c-2.366-0.188-4.676,0.318-6.607,1.748
				c-0.523,0.387-0.635,1.133-0.248,1.658c0.386,0.523,1.134,0.637,1.657,0.248C370.706,305.893,373.661,305.944,376.175,306.844z"
				/>
			<path style="fill-rule:evenodd;clip-rule:evenodd;fill:#322E70;" d="M331.718,318.151c0,0-0.679-1.98-3.35-1.723
				c-13.913-13.17-16.174-37.289-3.966-50.428c18.15-19.534,56.348-27.035,65.279,1.949c0.016,0.047,0.045,0.061,0.045,0.061
				c0.029-0.018,0.057-0.035,0.086-0.051c12.17-7,31.897,12.852,9.889,40.25c-4.08,0.395-4.398,3.76-4.398,3.76l0.436,4.479
				c-9.561-1.18-7.639-8.498-8.535-13.416c-4.607-0.719-11.595-4.127-9.189-16.098c-22.909,20.588-49.824-5.084-47.171,22.197
				L331.718,318.151z"/>
			<path style="fill-rule:evenodd;clip-rule:evenodd;fill:#E4ADBC;" d="M354.439,324.077c0,0,2.135,4.322,1.591,5.811
				c-0.543,1.488-3.712,1.248-4.366,0.211C351.012,329.059,352.945,322.436,354.439,324.077z"/>
			<g>
				<path style="fill-rule:evenodd;clip-rule:evenodd;fill:#4D438D;" d="M377.077,268.284
					c-11.861,10.369-28.002,20.195-46.249,19.709c2.53-9.377,9.271-17.217,18.224-21.096c4.503-0.355,9.178-1.158,13.887-2.584
					C368.003,264.514,372.822,265.924,377.077,268.284z"/>
				<path style="fill-rule:evenodd;clip-rule:evenodd;fill:#4D438D;" d="M385.833,259.821
					c-14.291,15.182-39.983,35.379-69.303,25.641c0.463-7.303,3.027-14.246,7.872-19.461c0.277-0.297,0.558-0.594,0.845-0.885
					c14.111,3.1,36.554,4.465,56.239-10.129C383.093,256.352,384.556,257.957,385.833,259.821z"/>
			</g>
			<path style="fill-rule:evenodd;clip-rule:evenodd;fill:#D77B9D;" d="M338.686,373.071c0,0,2.718-5.484,4.693-7.008
				c5.05-3.898,8.532-0.287,4.489,5.25c-1.837,2.516-4.362,5.315-4.362,5.315L338.686,373.071z"/>
			<path style="fill-rule:evenodd;clip-rule:evenodd;fill:#D77B9D;" d="M425.853,373.071c0,0-2.719-5.484-4.693-7.008
				c-5.049-3.898-8.531-0.287-4.49,5.25c1.84,2.516,4.363,5.315,4.363,5.315L425.853,373.071z"/>
			<g>
				<rect x="270.858" y="371.915" style="fill-rule:evenodd;clip-rule:evenodd;fill:#322E70;" width="230.973" height="82.145"/>
				<path style="fill-rule:evenodd;clip-rule:evenodd;fill:#4D438D;" d="M501.831,444.628v-0.463h-9.248v-15.242h9.248v-0.463
					h-9.475h-0.012h-26.264v-15.242h26.264h0.008h0.004h9.475v-0.463h-9.248v-15.242h9.248v-0.463h-9.475h-0.012h-26.264v-15.24
					h26.264h0.008h0.004h9.475v-0.465h-9.248v-9.43h-0.463v9.43h-26.264h-0.014h-26.262v-9.43h-0.465v9.43h-26.264h-0.012h-26.264
					v-9.43h-0.463v9.43H359.85h-0.014h-26.263v-9.43h-0.464v9.43h-26.263h-0.013H280.57v-9.43h-0.464v9.43h-9.248v0.465h9.474h0.005
					h0.006h26.264v15.24h-26.264h-0.011h-9.474v0.463h9.248v15.242h-9.248v0.463h9.474h0.005h0.006h26.264v15.242h-26.264h-0.011
					h-9.474v0.463h9.248v15.242h-9.248v0.463h9.474h0.005h0.006h26.264v9.432h0.464v-9.432h26.264h0.007h0.005h26.265v9.432h0.464
					v-9.432h26.263h0.006h0.006h26.264v9.432h0.463v-9.432h26.266h0.006h0.006h26.264v9.432h0.463v-9.432h26.264h0.008h0.004
					H501.831L501.831,444.628z M280.57,428.922h26.264h0.007h0.006h26.263v15.242h-26.263h-0.013H280.57V428.922L280.57,428.922z
					 M333.574,428.922h26.263h0.007h0.007h26.264v15.242H359.85h-0.014h-26.263V428.922L333.574,428.922z M386.577,428.922h26.264
					h0.004h0.008h26.264v15.242h-26.264h-0.012h-26.264V428.922L386.577,428.922z M439.581,428.922h26.262h0.006h0.008h26.264
					v15.242h-26.264h-0.014h-26.262V428.922L439.581,428.922z M307.072,413.217h26.264h0.007h0.005h26.265v15.242h-26.265h-0.012
					h-26.264V413.217L307.072,413.217z M360.076,413.217h26.263h0.006h0.006h26.264v15.242h-26.264h-0.012h-26.263V413.217
					L360.076,413.217z M413.077,413.217h26.266h0.006h0.006h26.264v15.242h-26.264h-0.012h-26.266V413.217L413.077,413.217z
					 M280.57,397.512h26.264h0.007h0.006h26.263v15.242h-26.263h-0.013H280.57V397.512L280.57,397.512z M333.574,397.512h26.263
					h0.007h0.007h26.264v15.242H359.85h-0.014h-26.263V397.512L333.574,397.512z M386.577,397.512h26.264h0.004h0.008h26.264v15.242
					h-26.264h-0.012h-26.264V397.512L386.577,397.512z M439.581,397.512h26.262h0.006h0.008h26.264v15.242h-26.264h-0.014h-26.262
					V397.512L439.581,397.512z M307.072,381.809h26.264h0.007h0.005h26.265v15.24h-26.265h-0.012h-26.264V381.809L307.072,381.809z
					 M360.076,381.809h26.263h0.006h0.006h26.264v15.24h-26.264h-0.012h-26.263V381.809L360.076,381.809z M413.077,381.809h26.266
					h0.006h0.006h26.264v15.24h-26.264h-0.012h-26.266V381.809z"/>
			</g>
			<g>
				<path style="fill-rule:evenodd;clip-rule:evenodd;fill:#DC8DA2;" d="M334.513,377.475c1.146,1.797,1.574,2.459,2.75,2.441
					c2.732-0.045,3.51-3.869,3.884-7.506c0.313-3.043,0.456-5.861,0.129-7.137c-0.794-3.09-4.064-2.568-5.802-0.936
					c0,0-2.314-6.076-6.798-0.889c-1.067-3.182-5.227-4.502-7.577-0.006c-6.591-1.377-7.13,6.74-6.843,11.594
					c0.266,4.52,3.772,5.402,5.344,2.272c0.637,2.576,2.09,3.543,3.448,3.691c1.655,0.182,3.232-0.977,3.763-3.469
					C328.319,381.832,333.59,381.778,334.513,377.475z"/>
				<path style="fill-rule:evenodd;clip-rule:evenodd;fill:#C75E94;" d="M334,377.985c0.073,0.252,0.328,0.395,0.57,0.318
					c0.241-0.076,0.378-0.344,0.305-0.598c-0.003-0.01-0.475-5.072,0.85-10.227c0.065-0.254-0.081-0.52-0.325-0.586
					c-0.244-0.068-0.497,0.084-0.561,0.338C333.45,372.639,333.997,377.975,334,377.985z"/>
				<path style="fill-rule:evenodd;clip-rule:evenodd;fill:#C75E94;" d="M320.745,367.881c0.101-0.24-0.004-0.525-0.236-0.635
					c-0.231-0.107-0.504,0-0.605,0.242c-0.005,0.014-2.093,5.08-0.96,10.545c0.052,0.258,0.297,0.426,0.544,0.373
					c0.247-0.053,0.404-0.309,0.352-0.566C318.769,372.676,320.739,367.895,320.745,367.881z"/>
				<path style="fill-rule:evenodd;clip-rule:evenodd;fill:#C75E94;" d="M328.11,368.032c0.074-0.252-0.064-0.521-0.306-0.598
					c-0.242-0.078-0.498,0.063-0.572,0.314c-0.003,0.016-1.46,5.045-0.819,10.25c0.032,0.264,0.261,0.451,0.513,0.42
					c0.251-0.033,0.428-0.271,0.397-0.533C326.708,372.881,328.107,368.047,328.11,368.032z"/>
			</g>
			<g>
				<path style="fill-rule:evenodd;clip-rule:evenodd;fill:#DC8DA2;" d="M439.882,377.475c1.147,1.797,1.574,2.459,2.748,2.441
					c2.733-0.045,3.51-3.869,3.885-7.506c0.315-3.043,0.457-5.861,0.129-7.137c-0.795-3.09-4.064-2.568-5.803-0.936
					c0,0-2.312-6.076-6.797-0.889c-1.068-3.182-5.227-4.502-7.578-0.006c-6.59-1.377-7.131,6.74-6.842,11.594
					c0.266,4.52,3.772,5.402,5.346,2.272c0.635,2.576,2.088,3.543,3.447,3.691c1.652,0.182,3.23-0.977,3.76-3.469
					C433.688,381.832,438.958,381.778,439.882,377.475z"/>
				<path style="fill-rule:evenodd;clip-rule:evenodd;fill:#C75E94;" d="M439.368,377.985c0.074,0.252,0.328,0.395,0.57,0.318
					c0.24-0.076,0.381-0.344,0.305-0.598c0-0.01-0.475-5.072,0.852-10.227c0.064-0.254-0.082-0.52-0.326-0.586
					c-0.244-0.068-0.496,0.084-0.56,0.338C438.817,372.639,439.366,377.975,439.368,377.985z"/>
				<path style="fill-rule:evenodd;clip-rule:evenodd;fill:#C75E94;" d="M426.114,367.881c0.1-0.24-0.006-0.525-0.236-0.635
					c-0.232-0.107-0.506,0-0.603,0.242c-0.008,0.014-2.094,5.08-0.963,10.545c0.053,0.258,0.297,0.426,0.545,0.373
					c0.246-0.053,0.404-0.309,0.352-0.566C424.138,372.676,426.107,367.895,426.114,367.881z"/>
				<path style="fill-rule:evenodd;clip-rule:evenodd;fill:#C75E94;" d="M433.481,368.032c0.072-0.252-0.066-0.521-0.309-0.598
					c-0.24-0.078-0.498,0.063-0.57,0.314c-0.006,0.016-1.461,5.045-0.818,10.25c0.029,0.264,0.262,0.451,0.51,0.42
					c0.252-0.033,0.43-0.271,0.398-0.533C432.077,372.881,433.476,368.047,433.481,368.032z"/>
			</g>
		</g>
		<g>
			<path style="fill-rule:evenodd;clip-rule:evenodd;fill:#EDBF5B;" d="M361.885,127.463c9.467,0,19.577-0.107,32.294-0.225
				c5.91,0.706,10.533,2.473,14.107,5.062c6.541,4.742,19.635,21.974,22.435,28.974c0.416,1.038,0.768,2.085,1.025,3.144H323.153
				C316.614,147.964,337.939,127.463,361.885,127.463z"/>
			<path style="fill-rule:evenodd;clip-rule:evenodd;fill:#FFFFFF;" d="M367.491,125.315c0,0,3.73,8.034,15.954,10.119
				c0,0-2.861,10.245-11.09,8.958C364.123,143.105,357.478,123.941,367.491,125.315z"/>
			<path style="fill-rule:evenodd;clip-rule:evenodd;fill:#FFFFFF;" d="M391.026,126.191c0,0,0.111,7.594-8.897,9.678
				c0,0,4.358,8.203,10.422,6.917C398.616,141.5,398.403,124.817,391.026,126.191z"/>
			<path style="fill-rule:evenodd;clip-rule:evenodd;fill:#DC8DA2;" d="M379.368,137.515L379.368,137.515
				c-7.022,0-12.767-5.745-12.767-12.768V106.55c0-7.023,5.745-12.768,12.767-12.768l0,0c7.023,0,12.77,5.745,12.77,12.768v18.196
				C392.138,131.77,386.392,137.515,379.368,137.515z"/>
			<path style="fill-rule:evenodd;clip-rule:evenodd;fill:#C75E94;" d="M366.602,116.439v-8.284v-0.009v-0.01v-0.01v-0.01v-0.01
				v-0.009v-0.01c0-0.187,0.005-0.37,0.015-0.553c5.184-3.67,18.082-3.463,24.978-3.052c0.348,1.147,0.537,2.359,0.543,3.613v0.06
				v16.592c0,2.293-0.613,4.448-1.684,6.313L366.602,116.439z"/>
			<path style="fill-rule:evenodd;clip-rule:evenodd;fill:#D77B9D;" d="M426.525,153.694c0,0-2.719-5.482-4.693-7.007
				c-5.053-3.898-8.533-0.286-4.49,5.251c1.836,2.516,4.363,5.315,4.363,5.315L426.525,153.694z"/>
			<path style="fill-rule:evenodd;clip-rule:evenodd;fill:#D77B9D;" d="M346.053,153.694c0,0,2.718-5.482,4.694-7.008
				c5.05-3.897,8.531-0.285,4.488,5.251c-1.837,2.516-4.363,5.315-4.363,5.315L346.053,153.694z"/>
			<path style="fill-rule:evenodd;clip-rule:evenodd;fill:#C75E94;" d="M413.796,84.125c-4.428-0.202-8.178,3.222-8.381,7.648
				c-0.205,4.425,3.219,8.177,7.646,8.381c4.426,0.203,8.176-3.221,8.379-7.646C421.646,88.082,418.222,84.329,413.796,84.125z"/>
			<path style="fill-rule:evenodd;clip-rule:evenodd;fill:#322E70;" d="M363.4,25.866c11.217,0.3,20.068,9.638,19.767,20.855
				c-0.303,11.217-9.639,20.066-20.857,19.766c-11.216-0.301-20.066-9.638-19.766-20.855
				C342.844,34.415,352.182,25.566,363.4,25.866z"/>
			<path style="fill-rule:evenodd;clip-rule:evenodd;fill:#CF4E8E;" d="M366.84,34.637c4.478,0.12,8.01,3.847,7.89,8.326
				c-0.12,4.477-3.847,8.009-8.325,7.889c-4.477-0.12-8.01-3.846-7.89-8.324C358.635,38.05,362.362,34.517,366.84,34.637z"/>
			<path style="fill-rule:evenodd;clip-rule:evenodd;fill:#322E70;" d="M396.493,30.373c-12.578-1.493-25.168,2.19-32.291,13.246
				c0,0-3.875-3.649-7.61-1.906c-3.735,1.744-13.847,22.348-14.003,28.16c-0.155,5.811,12.462,18.714,12.462,18.714
				c2.717-0.44,2.649,2.118,2.649,2.118l-0.112,4.181c1.412,0.038,1.698-2.011,1.747-3.854c0.05-1.843,0.103-3.828,0.103-3.828
				s3.461-5.171,3.609-10.699l9.408,0.251c0.767,0.021,1.532-0.785,1.724-1.589c0.192-0.803,0.847-6.148,1.049-7.419
				c0.205-1.271,0.648-1.897,0.893-1.551c0.247,0.347,0.297,4.774,0.647,7.636c0.344,2.815,2.24,3.093,2.299,3.101l0,0l10.59,0.284
				L396.493,30.373z"/>
			<path style="fill-rule:evenodd;clip-rule:evenodd;fill:#C75E94;" d="M357.682,81.647c-0.199,0.021-0.396,0.048-0.59,0.083
				l-0.006,0.002l0.001-0.001c-3.597,0.653-6.397,3.719-6.573,7.527c-0.202,4.425,3.223,8.178,7.647,8.38
				c4.426,0.203,8.179-3.221,8.383-7.646c0.117-2.573-0.99-4.917-2.806-6.469c0.141,2.373-0.315,5.292-3.344,5.505l0.211-4.621
				C360.69,82.537,358.967,81.628,357.682,81.647z"/>
			<path style="fill-rule:evenodd;clip-rule:evenodd;fill:#DC8DA2;" d="M390.034,42.425L390.034,42.425
				c-15.097-0.691-28.015,11.094-28.706,26.192l-1.144,24.946c-0.691,15.099,11.094,28.016,26.192,28.707l0,0
				c15.098,0.692,28.014-11.093,28.707-26.192l1.142-24.945C416.917,56.035,405.132,43.117,390.034,42.425z"/>
			<path style="fill-rule:evenodd;clip-rule:evenodd;fill:#322E70;" d="M360.59,80.148l2.657,0.312c0,0,2.304,8.207-2.853,8.568
				l0.211-4.621c0.015-0.321-0.025-0.614-0.104-0.878L360.59,80.148z"/>
			<path style="fill-rule:evenodd;clip-rule:evenodd;fill:#322E70;" d="M384.372,49.818l-2.135,4.133c0,0-5.754-2.607-7.716,5.339
				c-1.964,7.946-6.099,29.407-23.538,22.365c0,0,0.188-26.559,9.185-33.914C369.165,40.384,384.372,49.818,384.372,49.818z"/>
			<path style="fill-rule:evenodd;clip-rule:evenodd;fill:#322E70;" d="M373.021,52.848l0.153-0.018
				c0.176,0.146,0.418,0.21,0.657,0.149c6.742-1.694,10.648,4.693,15.236,12.196c4.633,7.578,9.932,16.24,19.545,19.425
				c0.803,0.494,1.641,0.935,2.52,1.307c16.082,6.778,30.275-13.659,19.217-33.148c-11.863-20.902-47.315-33.77-58.963-9.127
				C371.386,43.632,369.021,48.952,373.021,52.848L373.021,52.848z M383.769,55.01c8.232,5.167,12.541,17.685,19.957,25.536
				c-5.945-3.965-9.869-10.379-13.395-16.145C388.128,60.799,386.073,57.439,383.769,55.01z"/>
			<path style="fill-rule:evenodd;clip-rule:evenodd;fill:#322E70;" d="M431.323,78.502c2.77-4.849,3.818-11.256,2.141-18.007
				c-11.85-1.288-35.273-6.759-47.105-29.548c-1.598,0.4-3.143,0.96-4.607,1.694C387.487,49.396,401.646,78.141,431.323,78.502z"/>
			<g>
				<path style="fill-rule:evenodd;clip-rule:evenodd;fill:#C75E94;" d="M408.698,97.872c-2.129,0.007-3.848,1.738-3.842,3.865
					c0.008,2.128,1.736,3.847,3.865,3.839c2.127-0.008,3.846-1.739,3.84-3.866C412.554,99.584,410.823,97.865,408.698,97.872z"/>
				<path style="fill-rule:evenodd;clip-rule:evenodd;fill:#C75E94;" d="M375.559,97.984c-2.126,0.008-3.845,1.739-3.839,3.866
					c0.008,2.127,1.738,3.845,3.866,3.839c2.126-0.007,3.845-1.738,3.839-3.865C379.419,99.696,377.687,97.977,375.559,97.984z"/>
			</g>
			<g>
				<path style="fill-rule:evenodd;clip-rule:evenodd;fill:#322E70;" d="M384.571,104.929c-0.068,4.187,3.266,7.637,7.451,7.707
					c4.188,0.071,7.637-3.264,7.711-7.45h-0.014c0.01-0.72-0.568-1.319-1.287-1.331l-12.514-0.212
					c-0.721-0.013-1.32,0.567-1.334,1.286H384.571z"/>
				<path style="fill-rule:evenodd;clip-rule:evenodd;fill:#C75E94;" d="M387.298,110.878c1.281,1.071,2.924,1.728,4.725,1.759
					c1.471,0.025,2.852-0.371,4.029-1.077c-0.559-1.564-2.24-2.758-4.287-2.869C389.81,108.585,388.079,109.494,387.298,110.878z"/>
				<path style="fill-rule:evenodd;clip-rule:evenodd;fill:#FFFFFF;" d="M398.599,103.871l-11.76-0.2
					c-0.213,1.298,0.369,2.623,1.24,2.923c1.059,0.366,9.572,0.289,10.188-0.372C398.564,105.903,398.62,104.862,398.599,103.871z"
					/>
			</g>
			<path style="fill-rule:evenodd;clip-rule:evenodd;fill:#322E70;" d="M372.971,81.419c-0.386,0.204-0.864,0.056-1.067-0.328
				c-0.204-0.386-0.057-0.864,0.328-1.067c0.013-0.007,4.646-2.599,8.903-0.172c0.379,0.216,0.512,0.699,0.297,1.077
				c-0.215,0.38-0.699,0.512-1.078,0.297C376.872,79.24,372.982,81.414,372.971,81.419z"/>
			<g>
				<path style="fill-rule:evenodd;clip-rule:evenodd;fill:#322E70;" d="M408.923,93.048c-0.064-0.661-0.387-1.266-0.9-1.687
					c-0.516-0.422-1.172-0.621-1.832-0.555c-0.662,0.065-1.264,0.388-1.686,0.901c-0.422,0.514-0.621,1.169-0.557,1.83
					c0.055,0.551-0.348,1.04-0.898,1.095c-0.549,0.054-1.037-0.348-1.094-0.898c-0.115-1.19,0.24-2.372,0.998-3.297
					c0.762-0.925,1.85-1.506,3.041-1.624c1.191-0.117,2.371,0.241,3.297,0.999c0.475,0.391,0.861,0.868,1.137,1.402
					c0.135,0.016,0.387,0.013,0.596-0.18c0.117-0.108,0.297-0.1,0.406,0.016c0.105,0.117,0.098,0.298-0.018,0.405
					c-0.238,0.219-0.51,0.301-0.738,0.324l0.008,0.021c0.248,0.029,0.555,0.007,0.861-0.176c0.135-0.08,0.31-0.037,0.393,0.099
					c0.082,0.136,0.035,0.312-0.1,0.393c-0.342,0.204-0.688,0.266-0.992,0.261v0.007c0.262,0.077,0.564,0.109,0.902,0.034
					c0.156-0.034,0.309,0.064,0.342,0.218c0.035,0.155-0.064,0.308-0.217,0.342c-0.346,0.077-0.668,0.068-0.951,0.012
					c-0.02,0.492-0.398,0.907-0.904,0.956C409.468,93.999,408.979,93.598,408.923,93.048z"/>
				<path style="fill-rule:evenodd;clip-rule:evenodd;fill:#322E70;" d="M376.743,93.265c-0.018-0.664,0.228-1.304,0.688-1.786
					c0.455-0.482,1.082-0.761,1.746-0.778c0.664-0.017,1.303,0.229,1.787,0.686c0.479,0.458,0.76,1.083,0.777,1.747
					c0.014,0.553,0.477,0.989,1.027,0.974c0.551-0.014,0.99-0.475,0.973-1.027c-0.029-1.197-0.531-2.323-1.402-3.147
					c-0.867-0.825-2.018-1.266-3.215-1.235c-1.195,0.032-2.322,0.534-3.148,1.402c-0.423,0.446-0.745,0.968-0.954,1.532
					c-0.131,0.031-0.382,0.061-0.613-0.105c-0.129-0.092-0.309-0.062-0.4,0.067c-0.092,0.128-0.062,0.308,0.066,0.399
					c0.263,0.188,0.543,0.235,0.772,0.23l-0.004,0.021c-0.241,0.06-0.551,0.076-0.875-0.067c-0.145-0.063-0.314,0.002-0.377,0.147
					c-0.064,0.144,0.002,0.313,0.146,0.378c0.365,0.159,0.717,0.178,1.018,0.135v0.006c-0.248,0.109-0.548,0.18-0.892,0.146
					c-0.158-0.014-0.297,0.102-0.312,0.26c-0.014,0.157,0.103,0.297,0.26,0.311c0.353,0.034,0.669-0.014,0.946-0.105
					c0.08,0.486,0.507,0.85,1.013,0.835C376.322,94.277,376.759,93.818,376.743,93.265z"/>
			</g>
			<path style="fill-rule:evenodd;clip-rule:evenodd;fill:#E4ADBC;" d="M395.413,95.452c0,0,2.129,2.162,2.125,3.426
				c-0.002,1.264-1.24,1.86-2.389,1.699C394.001,100.416,394.251,94.113,395.413,95.452z"/>
			<polygon style="fill-rule:evenodd;clip-rule:evenodd;fill:#322E70;" points="274.325,211.415 274.325,182.84 274.325,150.829 
				274.325,82.904 328.439,82.904 328.439,150.829 444.251,150.829 444.251,82.904 498.364,82.904 498.364,150.829 498.364,182.84 
				498.364,211.415 			"/>
			<path style="fill-rule:evenodd;clip-rule:evenodd;fill:#4D438D;" d="M274.325,210.21v-0.464h5.781v-15.241h-5.781v-0.463h6.006
				h0.013h26.263v-15.241h-26.263h-0.007h-0.006h-6.006v-0.465h5.781v-15.241h-5.781v-0.463h6.006h0.013h26.263v-15.241h-26.263
				h-0.007h-0.006h-6.006v-0.464h5.781v-15.241h-5.781v-0.463h6.006h0.013h26.263v-15.241h-26.263h-0.007h-0.006h-6.006v-0.465
				h5.781v-15.241h-5.781v-0.464h6.006h0.013h26.263V84.573h-26.263h-0.007h-0.006h-6.006v-0.463h5.781v-1.206h0.463v1.206h26.264
				h0.012h21.593v0.463h-21.367v15.241h21.367v0.464h-21.593h-0.006h-0.006H280.57v15.241h26.264h0.012h21.593v0.465h-21.367v15.241
				h21.367v0.463h-21.593h-0.006h-0.006H280.57v15.241h26.264h0.012h21.593v0.464h-21.367v15.241h26.264h0.012h26.265v-11.803h0.463
				v11.803h26.264h0.014h26.262v-11.803h0.463v11.803h26.266h0.012h26.264v-15.241h-21.367v-0.464h21.592h0.014h26.262v-15.241
				h-26.262h-0.008h-0.006h-21.592v-0.463h21.367v-15.241h-21.367v-0.465h21.592h0.014h26.262v-15.241h-26.262h-0.008h-0.006
				h-21.592v-0.464h21.367V84.573h-21.367v-0.463h21.592h0.014h26.262v-1.206h0.467v1.206h5.779v0.463h-6.008h-0.006h-0.004h-26.266
				v15.241h26.266h0.01h6.008v0.464h-5.779v15.241h5.779v0.465h-6.008h-0.006h-0.004h-26.266v15.241h26.266h0.01h6.008v0.463h-5.779
				v15.241h5.779v0.464h-6.008h-0.006h-0.004h-26.266v15.241h26.266h0.01h6.008v0.463h-5.779v15.241h5.779v0.465h-6.008h-0.006
				h-0.004h-26.266v15.241h26.266h0.01h6.008v0.463h-5.779v15.241h5.779v0.464h-6.008h-0.006h-0.004h-26.266v1.205h-0.463v-1.205
				h-26.264h-0.008h-0.004h-26.266v1.205h-0.463v-1.205h-26.262h-0.008h-0.006h-26.264v1.205h-0.463v-1.205h-26.265h-0.006h-0.006
				h-26.264v1.205h-0.464v-1.205h-26.263h-0.007h-0.006H274.325L274.325,210.21z M492.118,194.505h-26.262h-0.008h-0.006h-26.262
				v15.241h26.262h0.014h26.262V194.505L492.118,194.505z M439.116,194.505h-26.264h-0.008h-0.006h-26.262v15.241h26.262h0.014
				h26.264V194.505L439.116,194.505z M386.114,194.505h-26.265h-0.007h-0.006h-26.263v15.241h26.263h0.013h26.265V194.505
				L386.114,194.505z M333.11,194.505h-26.264h-0.006h-0.006H280.57v15.241h26.264h0.012h26.264V194.505L333.11,194.505z
				 M465.618,178.801h-26.264h-0.008h-0.004h-26.266v15.241h26.266h0.012h26.264V178.801L465.618,178.801z M412.614,178.801h-26.262
				h-0.008h-0.006h-26.264v15.241h26.264h0.014h26.262V178.801L412.614,178.801z M359.612,178.801h-26.265h-0.006h-0.006h-26.264
				v15.241h26.264h0.012h26.265V178.801L359.612,178.801z M492.118,163.095h-26.262h-0.008h-0.006h-26.262v15.241h26.262h0.014
				h26.262V163.095L492.118,163.095z M439.116,163.095h-26.264h-0.008h-0.006h-26.262v15.241h26.262h0.014h26.264V163.095
				L439.116,163.095z M386.114,163.095h-26.265h-0.007h-0.006h-26.263v15.241h26.263h0.013h26.265V163.095L386.114,163.095z
				 M333.11,163.095h-26.264h-0.006h-0.006H280.57v15.241h26.264h0.012h26.264V163.095z"/>
			<path style="fill-rule:evenodd;clip-rule:evenodd;fill:#4D438D;" d="M381.308,31.323c5.432,16.516,19.543,46.808,50.016,47.178
				c2.77-4.849,3.818-11.256,2.141-18.007c-11.945-1.3-35.656-6.85-47.393-30.112C384.452,30.592,382.86,30.903,381.308,31.323z"/>
			<g>
				<path style="fill-rule:evenodd;clip-rule:evenodd;fill:#DC8DA2;" d="M344.104,158.734c1.147,1.797,1.574,2.459,2.75,2.44
					c2.732-0.044,3.51-3.869,3.883-7.505c0.312-3.042,0.456-5.861,0.129-7.137c-0.794-3.09-4.064-2.569-5.802-0.934
					c0,0-2.313-6.078-6.798-0.889c-1.068-3.182-5.227-4.502-7.577-0.006c-6.592-1.377-7.129,6.74-6.842,11.593
					c0.265,4.52,3.772,5.402,5.344,2.272c0.637,2.576,2.09,3.543,3.448,3.692c1.655,0.182,3.232-0.977,3.763-3.469
					C337.911,163.093,343.182,163.038,344.104,158.734z"/>
				<path style="fill-rule:evenodd;clip-rule:evenodd;fill:#C75E94;" d="M343.591,159.244c0.073,0.252,0.329,0.395,0.57,0.318
					c0.242-0.076,0.378-0.343,0.305-0.596c-0.003-0.011-0.475-5.073,0.85-10.227c0.065-0.255-0.081-0.519-0.325-0.587
					c-0.245-0.069-0.497,0.083-0.561,0.339C343.041,153.898,343.588,159.233,343.591,159.244z"/>
				<path style="fill-rule:evenodd;clip-rule:evenodd;fill:#C75E94;" d="M330.336,149.141c0.101-0.242-0.004-0.526-0.236-0.634
					c-0.231-0.108-0.503-0.001-0.605,0.24c-0.005,0.015-2.094,5.081-0.961,10.546c0.053,0.258,0.299,0.425,0.546,0.372
					c0.247-0.053,0.404-0.307,0.351-0.565C328.359,153.936,330.33,149.154,330.336,149.141z"/>
				<path style="fill-rule:evenodd;clip-rule:evenodd;fill:#C75E94;" d="M337.702,149.292c0.074-0.252-0.064-0.521-0.306-0.6
					c-0.241-0.078-0.498,0.064-0.571,0.317c-0.004,0.014-1.46,5.044-0.82,10.25c0.032,0.262,0.261,0.449,0.513,0.418
					c0.251-0.031,0.429-0.27,0.397-0.533C336.299,154.142,337.698,149.306,337.702,149.292z"/>
			</g>
			<g>
				<path style="fill-rule:evenodd;clip-rule:evenodd;fill:#DC8DA2;" d="M427.532,158.734c-1.146,1.797-1.574,2.459-2.752,2.44
					c-2.73-0.044-3.51-3.869-3.883-7.505c-0.31-3.042-0.457-5.861-0.127-7.137c0.791-3.09,4.063-2.569,5.801-0.934
					c0,0,2.315-6.078,6.797-0.889c1.068-3.182,5.227-4.502,7.578-0.006c6.592-1.377,7.129,6.74,6.844,11.593
					c-0.268,4.52-3.773,5.402-5.344,2.272c-0.637,2.576-2.092,3.543-3.447,3.692c-1.658,0.182-3.234-0.977-3.766-3.469
					C433.726,163.093,428.452,163.038,427.532,158.734z"/>
				<path style="fill-rule:evenodd;clip-rule:evenodd;fill:#C75E94;" d="M428.044,159.244c-0.072,0.252-0.328,0.395-0.57,0.318
					c-0.242-0.076-0.377-0.343-0.305-0.596c0.004-0.011,0.475-5.073-0.85-10.227c-0.066-0.255,0.078-0.519,0.324-0.587
					c0.244-0.069,0.496,0.083,0.563,0.339C428.595,153.898,428.048,159.233,428.044,159.244z"/>
				<path style="fill-rule:evenodd;clip-rule:evenodd;fill:#C75E94;" d="M441.302,149.141c-0.103-0.242,0.002-0.526,0.234-0.634
					c0.23-0.108,0.502-0.001,0.605,0.24c0.004,0.015,2.094,5.081,0.959,10.546c-0.053,0.258-0.297,0.425-0.543,0.372
					c-0.248-0.053-0.406-0.307-0.353-0.565C443.276,153.936,441.304,149.154,441.302,149.141z"/>
				<path style="fill-rule:evenodd;clip-rule:evenodd;fill:#C75E94;" d="M433.935,149.292c-0.074-0.252,0.063-0.521,0.305-0.6
					c0.242-0.078,0.498,0.064,0.572,0.317c0.002,0.014,1.457,5.044,0.82,10.25c-0.033,0.262-0.262,0.449-0.514,0.418
					c-0.252-0.031-0.43-0.27-0.397-0.533C435.337,154.142,433.937,149.306,433.935,149.292z"/>
			</g>
		</g>
		<g>
			<path style="fill-rule:evenodd;clip-rule:evenodd;fill:#DC8DA2;" d="M197.484,287.543l30.94,7.311l-4.816-64.022l15.051-3.301
				l21.35,77.132c0,0,2.03,17.08-16.693,19.861c-18.723,2.785-65.223-2.295-65.223-2.295L197.484,287.543z"/>
			<path style="fill-rule:evenodd;clip-rule:evenodd;fill:#C75E94;" d="M224.634,244.465l-0.921-12.248
				c3.666-0.715,9.553-1.666,13.453-1.305l-4.789,3.716L224.634,244.465z"/>
			<path style="fill-rule:evenodd;clip-rule:evenodd;fill:#EDBF5B;" d="M145.622,272.86l4.87-1.059c0,0,25.195,8.68,34.722,11.221
				c9.527,2.541,34.085,4.869,34.085,4.869s1.588,0.422,2.011,1.799c0,0-8.554,29.346-7.072,45.857c0,0-0.953,1.906-2.752,2.33
				c-1.799,0.422-47.847-1.588-53.351-0.529c-5.504,1.057-42.766,42.553-42.766,42.553l-5.947-138.061l18.631,10.373L145.622,272.86
				z"/>
			<path style="fill-rule:evenodd;clip-rule:evenodd;fill:#DF9258;" d="M158.134,337.348c-5.504,1.057-42.766,42.553-42.766,42.553
				l-1.4-32.518L158.134,337.348z"/>
			<path style="fill-rule:evenodd;clip-rule:evenodd;fill:#FFFFFF;" d="M145.332,272.055l4.536-0.984c0,0,6.56,2.258,14.055,4.738
				l-8.674,8.674c-10.818,10.818-28.469,10.818-39.286,0c-0.994-0.994-1.897-2.047-2.71-3.146l-1.335-31.002
				c1.06-1.733,2.328-3.374,3.803-4.886l13.244,7.375L145.332,272.055z"/>
			<path style="fill-rule:evenodd;clip-rule:evenodd;fill:#DC8DA2;" d="M165.723,234.725L165.723,234.725
				c6.83,6.829,6.83,18.006,0,24.834l-17.699,17.701c-6.831,6.83-18.006,6.83-24.836,0v-0.002c-6.83-6.828-6.83-18.004,0-24.836
				l17.699-17.699C147.716,227.894,158.892,227.894,165.723,234.725z"/>
			<path style="fill-rule:evenodd;clip-rule:evenodd;fill:#C75E94;" d="M162.571,262.711l-14.547,14.547
				c-2.998,3-6.833,4.68-10.77,5.047l-7.833-36.116l10.858-10.857L162.571,262.711z"/>
			<path style="fill-rule:evenodd;clip-rule:evenodd;fill:#C75E94;" d="M134.297,223.526c-0.233-0.018-0.463-0.03-0.693-0.032
				h-0.008h0.001c-4.251-0.04-8.12,2.85-9.151,7.161c-1.198,5.01,1.894,10.045,6.903,11.244c5.012,1.197,10.046-1.894,11.244-6.904
				c0.697-2.913-0.055-5.832-1.792-8.002c-0.358,2.742-1.515,5.977-5.022,5.559l1.251-5.233
				C137.537,225.2,135.768,223.787,134.297,223.526z"/>
			<path style="fill-rule:evenodd;clip-rule:evenodd;fill:#C75E94;" d="M196.688,237.199c0.219,0.081,0.433,0.167,0.644,0.262
				l0.006,0.003v-0.001c3.877,1.742,6.183,5.986,5.317,10.333c-1.008,5.053-5.921,8.333-10.974,7.325
				c-5.053-1.006-8.333-5.921-7.326-10.972c0.585-2.938,2.489-5.275,4.974-6.52c-0.822,2.64-1.123,6.063,2.237,7.15l1.053-5.276
				C193.044,237.365,195.242,236.822,196.688,237.199z"/>
			<path style="fill-rule:evenodd;clip-rule:evenodd;fill:#DC8DA2;" d="M177.162,185.211h-0.003
				c-17.158-3.76-34.277,7.202-38.038,24.362l-6.219,28.379c-3.761,17.162,7.204,34.279,24.361,38.041h0.004
				c17.157,3.76,34.276-7.203,38.037-24.363l6.22-28.38C205.285,206.089,194.319,188.971,177.162,185.211z"/>
			<g>
				<path style="fill-rule:evenodd;clip-rule:evenodd;fill:#FFFFFF;" d="M160.899,253.36c-0.955,4.465,1.891,8.857,6.354,9.811
					c4.465,0.955,8.858-1.889,9.813-6.354l-0.014-0.002c0.165-0.768-0.329-1.531-1.097-1.695l-13.348-2.852
					c-0.767-0.166-1.53,0.326-1.693,1.094L160.899,253.36z"/>
				<path style="fill-rule:evenodd;clip-rule:evenodd;fill:#FFFFFF;" d="M162.564,260.297c1.148,1.416,2.769,2.463,4.69,2.875
					c1.568,0.336,3.129,0.199,4.533-0.309c-0.266-1.791-1.816-3.42-3.984-3.969C165.734,258.37,163.692,258.981,162.564,260.297z"/>
				<path style="fill-rule:evenodd;clip-rule:evenodd;fill:#FFFFFF;" d="M176.13,255.172l-12.544-2.684
					c-0.497,1.346-0.154,2.883,0.713,3.389c1.056,0.613,10.186,2.318,10.981,1.74C175.664,257.34,175.943,256.237,176.13,255.172z"
					/>
			</g>
			<path style="fill-rule:evenodd;clip-rule:evenodd;fill:#C75E94;" d="M153.574,244.102c2.274,0.453,3.751,2.666,3.298,4.94
				c-0.453,2.277-2.665,3.753-4.94,3.3c-2.274-0.455-3.752-2.667-3.299-4.943C149.087,245.126,151.3,243.648,153.574,244.102z"/>
			<path style="fill-rule:evenodd;clip-rule:evenodd;fill:#C75E94;" d="M186.854,250.692c2.274,0.455,3.751,2.667,3.298,4.941
				c-0.453,2.275-2.666,3.752-4.94,3.299c-2.275-0.455-3.752-2.666-3.299-4.941C182.367,251.717,184.579,250.239,186.854,250.692z"
				/>
			<path style="fill-rule:evenodd;clip-rule:evenodd;fill:#322E70;" d="M182.849,245.256c-0.14,0.642-0.775,1.047-1.415,0.907
				c-0.641-0.139-1.047-0.774-0.906-1.415c0.3-1.373,1.128-2.56,2.311-3.318c1.183-0.757,2.607-1.012,3.98-0.711
				c1.372,0.301,2.559,1.128,3.316,2.311c0.757,1.183,1.012,2.607,0.713,3.979c-0.142,0.64-0.775,1.047-1.416,0.906
				c-0.641-0.141-1.047-0.774-0.906-1.414c0.165-0.756,0.024-1.54-0.391-2.19c-0.417-0.652-1.069-1.105-1.825-1.27
				c-0.755-0.165-1.538-0.027-2.189,0.39C183.47,243.849,183.015,244.502,182.849,245.256z"/>
			<path style="fill-rule:evenodd;clip-rule:evenodd;fill:#322E70;" d="M152.863,238.685c-0.141,0.642-0.774,1.047-1.415,0.906
				c-0.641-0.14-1.047-0.774-0.907-1.416c0.301-1.371,1.129-2.559,2.311-3.316c1.183-0.757,2.608-1.012,3.98-0.713
				c1.371,0.301,2.56,1.128,3.316,2.311c0.757,1.183,1.012,2.608,0.712,3.981c-0.141,0.64-0.774,1.045-1.415,0.906
				c-0.641-0.142-1.047-0.776-0.906-1.416c0.166-0.756,0.024-1.538-0.393-2.19c-0.415-0.65-1.069-1.105-1.823-1.27
				c-0.755-0.166-1.539-0.025-2.189,0.39C153.483,237.275,153.028,237.929,152.863,238.685z"/>
			<path style="fill-rule:evenodd;clip-rule:evenodd;fill:#322E70;" d="M192.302,233.484c-2.111-1.636-4.932-2.588-7.56-1.704
				c-0.617,0.208-1.294-0.129-1.501-0.746c-0.208-0.617,0.129-1.294,0.746-1.501c2.28-0.769,4.637-0.536,6.835,0.372
				c0.998,0.412,2.126,1.037,2.963,1.73c0.509,0.412,0.587,1.16,0.176,1.667C193.551,233.812,192.804,233.892,192.302,233.484z"/>
			<path style="fill-rule:evenodd;clip-rule:evenodd;fill:#322E70;" d="M154.669,225.234c-0.633,0.161-1.279-0.224-1.439-0.858
				c-0.16-0.633,0.223-1.278,0.856-1.438c1.068-0.28,2.331-0.377,3.428-0.333c2.372,0.095,4.604,0.871,6.352,2.52
				c0.474,0.446,0.497,1.2,0.05,1.674c-0.446,0.475-1.201,0.498-1.675,0.051C160.213,224.939,157.273,224.638,154.669,225.234z"/>
			<path style="fill-rule:evenodd;clip-rule:evenodd;fill:#322E70;" d="M197.473,241.732c0,0,0.909-1.887,3.531-1.312
				c15.376-11.428,20.48-35.109,9.917-49.603c-10.564-14.493-38.556-21.409-43.831-20.848c-5.276,0.562-12.168,7.794-12.168,7.794
				s-3.356-4.639-7.652-3.551c-4.298,1.087-22.614,22.676-23.952,28.785c-1.338,6.107,7.834,20.802,7.834,20.802
				c4.001,0.877,3.92,4.257,3.92,4.257l-0.962,4.395c1.483,0.324,3.756-1.44,4.181-3.377c0.425-1.937,2.815-14.595,2.815-14.595
				c0.16-0.033,0.317-0.069,0.475-0.106c4.433-1.225,6.016-8.754,6.016-8.754l-3.822,4.757l9.529-6.718l8.546-0.094l17.369,6.242
				c0,0,19.917,9.145,16.191,14.604c-0.726,1.065-1.183,2.205-1.451,3.349c4.49,3.083,5.458,5.123,5.458,5.123L197.473,241.732z"/>
			<path style="fill-rule:evenodd;clip-rule:evenodd;fill:#322E70;" d="M133.498,221.286c0,0-4.308-34.75,22.85-31.352
				c22.894-23.349,81.284,15.222,42.668,44.759l0.396-1.813c0,0-0.754-1.588-4.017-4.081c-0.425-0.352-0.892-0.689-1.396-1.01
				l-0.045-0.033c-0.046-0.032-0.094-0.056-0.142-0.083c-10.489-6.482-36.237-6.773-36.682-18.648
				C152.469,222.036,139.262,222.624,133.498,221.286z"/>
			<path style="fill-rule:evenodd;clip-rule:evenodd;fill:#E4ADBC;" d="M174.208,244.922c0,0-2.631,4.039-2.268,5.581
				c0.363,1.543,3.539,1.68,4.311,0.727C177.021,250.276,175.887,243.47,174.208,244.922z"/>
			<path style="fill-rule:evenodd;clip-rule:evenodd;fill:#4D438D;" d="M159.264,173.892c4.524,12.087,12.395,27.819,25.128,38.571
				c2.987,1.661,6.605,3.914,8.971,6.201c5.807,3.189,12.403,5.339,19.875,5.942c2.955-6.939,3.977-14.617,2.724-21.678
				c-14.331-2.134-37.961-9.199-51.236-32.337C162.839,171.337,160.908,172.617,159.264,173.892z"/>
			<path style="fill-rule:evenodd;clip-rule:evenodd;fill:#DC8DA2;" d="M214.568,226.67c-3.003-3.806-6.874-5.542-8.352-6.039
				c-1.952-0.656,2.146-7.475,7.814-2.369c0,0,3.382,1.281,4.23-0.055c0.847-1.334-6.963-20.891-7.817-23.028
				c-0.854-2.137,1.423-3.521,2.351-3.277c0.927,0.245,2.126,3.358,3.914,7.195c1.787,3.836,3.843,8.132,4.356,8.338
				c0.512,0.206,1.374-0.241,1.214-2.727c-0.16-2.486-1.557-16.137-0.845-17.226c0.712-1.087,3.104-1.023,3.926,0.964
				c0.822,1.987,1.71,15.823,2.386,17.559c0.677,1.737,2.266,0.81,2.532-0.466c0.266-1.276,1.421-16.415,2.049-17.454
				c0.628-1.04,3.069-0.892,3.389,1.388c0.32,2.28-0.18,16.813,0.357,17.733c0.537,0.921,2.148,0.992,3.459-1.568
				c1.313-2.559,3.427-8.164,4.181-8.603c0.752-0.439,2.998,1.392,2.139,4.247c-0.858,2.856-2.743,10.01-2.89,11.105
				c-0.776,5.78,0.129,11.225-1.093,15.65c-1.486,5.382-7.978,9.641-14.094,9.564C220.307,237.51,218.699,231.907,214.568,226.67z"
				/>
			<path style="fill-rule:evenodd;clip-rule:evenodd;fill:#D77B9D;" d="M116.449,176.255c0,0,6.721,1.058,8.998,2.646
				c5.817,4.059,3.144,8.956-4.076,6.51c-3.281-1.112-7.092-2.858-7.092-2.858L116.449,176.255z"/>
			<g>
				<rect x="38.822" y="70.24" style="fill-rule:evenodd;clip-rule:evenodd;fill:#322E70;" width="82.145" height="383.819"/>
				<path style="fill-rule:evenodd;clip-rule:evenodd;fill:#4D438D;" d="M80.127,70.241h-0.464v17.982H53.399h-0.012H38.822v0.641
					h14.338v21.061H38.822v0.64h14.564h0.006h0.006h26.264v21.061H53.399h-0.012H38.822v0.64h14.338v21.061H38.822v0.641h14.564
					h0.006h0.006h26.264v21.059H53.399h-0.012H38.822v0.64h14.338v21.061H38.822v0.641h14.564h0.006h0.006h26.264v21.06H53.399
					h-0.012H38.822v0.643h14.338v21.059H38.822v0.64h14.564h0.006h0.006h26.264v21.06H53.399h-0.012H38.822v0.641h14.338v21.06
					H38.822v0.641h14.564h0.006h0.006h26.264v21.059H53.399h-0.012H38.822v0.643h14.338v21.059H38.822v0.643h14.564h0.006h0.006
					h26.264v21.06H53.399h-0.012H38.822v0.639h14.338v21.06H38.822v0.641h14.564h0.006h0.006h26.264v21.06H53.399h-0.012H38.822
					v0.641h14.338v21.059H38.822v0.643h14.564h0.006h0.006h26.264v21.059H53.399h-0.012H38.822v0.643h14.338v17.982h0.464v-17.982
					h26.264h0.006H79.9h26.264v17.982h0.463v-17.982h14.34v-0.643h-14.565h-0.013H80.127v-21.059h26.263h0.007h0.006h14.565v-0.643
					h-14.34v-21.059h14.34v-0.641h-14.565h-0.013H80.127v-21.06h26.263h0.007h0.006h14.565v-0.641h-14.34v-21.06h14.34v-0.639
					h-14.565h-0.013H80.127v-21.06h26.263h0.007h0.006h14.565v-0.643h-14.34v-21.059h14.34v-0.643h-14.565h-0.013H80.127V284.17
					h26.263h0.007h0.006h14.565v-0.641h-14.34v-21.06h14.34v-0.641h-14.565h-0.013H80.127v-21.06h26.263h0.007h0.006h14.565v-0.64
					h-14.34v-21.059h14.34v-0.643h-14.565h-0.013H80.127v-21.06h26.263h0.007h0.006h14.565v-0.641h-14.34v-21.061h14.34v-0.64
					h-14.565h-0.013H80.127v-21.059h26.263h0.007h0.006h14.565v-0.641h-14.34v-21.061h14.34v-0.64h-14.565h-0.013H80.127v-21.061
					h26.263h0.007h0.006h14.565v-0.64h-14.34V88.864h14.34v-0.641h-14.565h-0.013H80.127V70.241L80.127,70.241z M53.625,392.674
					h26.264h0.006H79.9h26.264v21.059H79.9h-0.011H53.625V392.674L53.625,392.674z M53.625,349.272h26.264h0.006H79.9h26.264v21.06
					H79.9h-0.011H53.625V349.272L53.625,349.272z M53.625,305.872h26.264h0.006H79.9h26.264v21.059H79.9h-0.011H53.625V305.872
					L53.625,305.872z M53.625,262.469h26.264h0.006H79.9h26.264v21.06H79.9h-0.011H53.625V262.469L53.625,262.469z M53.625,219.069
					h26.264h0.006H79.9h26.264v21.059H79.9h-0.011H53.625V219.069L53.625,219.069z M53.625,175.666h26.264h0.006H79.9h26.264v21.061
					H79.9h-0.011H53.625V175.666L53.625,175.666z M53.625,132.265h26.264h0.006H79.9h26.264v21.061H79.9h-0.011H53.625V132.265
					L53.625,132.265z M53.625,88.864h26.264h0.006H79.9h26.264v21.061H79.9h-0.011H53.625V88.864z"/>
			</g>
			<g>
				<path style="fill-rule:evenodd;clip-rule:evenodd;fill:#DC8DA2;" d="M115.352,158.568c-1.797-1.146-2.459-1.575-2.44-2.75
					c0.044-2.732,3.868-3.51,7.505-3.883c3.041-0.313,5.861-0.457,7.138-0.128c3.089,0.793,2.568,4.064,0.934,5.802
					c0,0,6.078,2.313,0.888,6.798c3.182,1.067,4.501,5.228,0.007,7.578c1.377,6.591-6.74,7.129-11.594,6.843
					c-4.52-0.267-5.402-3.773-2.272-5.345c-2.577-0.636-3.543-2.089-3.692-3.448c-0.182-1.655,0.976-3.232,3.468-3.763
					C110.994,164.762,111.048,159.49,115.352,158.568z"/>
				<path style="fill-rule:evenodd;clip-rule:evenodd;fill:#C75E94;" d="M114.843,159.081c-0.253-0.073-0.396-0.329-0.319-0.571
					c0.077-0.241,0.344-0.378,0.596-0.304c0.011,0.002,5.074,0.475,10.228-0.851c0.256-0.064,0.519,0.081,0.587,0.325
					c0.068,0.245-0.084,0.497-0.34,0.563C120.189,159.632,114.854,159.083,114.843,159.081z"/>
				<path style="fill-rule:evenodd;clip-rule:evenodd;fill:#C75E94;" d="M124.947,172.337c0.241-0.102,0.525,0.004,0.633,0.236
					c0.107,0.231,0,0.503-0.241,0.605c-0.014,0.006-5.082,2.094-10.545,0.961c-0.259-0.053-0.425-0.298-0.372-0.545
					c0.053-0.247,0.306-0.404,0.565-0.352C120.15,174.313,124.934,172.343,124.947,172.337z"/>
				<path style="fill-rule:evenodd;clip-rule:evenodd;fill:#C75E94;" d="M124.795,164.97c0.252-0.074,0.521,0.064,0.6,0.306
					c0.078,0.242-0.063,0.499-0.316,0.571c-0.014,0.004-5.044,1.46-10.249,0.819c-0.263-0.031-0.45-0.261-0.418-0.512
					c0.031-0.252,0.27-0.429,0.532-0.397C119.945,166.374,124.781,164.974,124.795,164.97z"/>
			</g>
		</g>
		<path style="fill-rule:evenodd;clip-rule:evenodd;fill:#F1D6DE;" d="M482.478,304.485c2.516-15.344,16.992-25.744,32.338-23.228
			c15.342,2.516,25.742,16.994,23.229,32.338c-2.518,15.344-16.994,25.742-32.34,23.227
			C490.362,334.307,479.962,319.829,482.478,304.485z"/>
		<path style="fill-rule:evenodd;clip-rule:evenodd;fill:#BBB3D6;" d="M456.403,264.026c1.135-6.924,7.668-11.617,14.594-10.482
			c6.924,1.135,11.615,7.668,10.478,14.592c-1.133,6.924-7.668,11.617-14.59,10.484C459.962,277.483,455.267,270.95,456.403,264.026
			z"/>
		<path style="fill-rule:evenodd;clip-rule:evenodd;fill:#F1D6DE;" d="M187.774,111.404c2.516-15.344,16.993-25.744,32.338-23.228
			c15.343,2.516,25.743,16.993,23.228,32.337c-2.516,15.343-16.994,25.743-32.337,23.228
			C195.658,141.226,185.259,126.747,187.774,111.404z"/>
		<path style="fill-rule:evenodd;clip-rule:evenodd;fill:#BBB3D6;" d="M141.376,111.593c1.135-6.924,7.668-11.617,14.592-10.481
			c6.924,1.135,11.617,7.668,10.482,14.592c-1.136,6.924-7.669,11.617-14.593,10.481
			C144.934,125.05,140.241,118.517,141.376,111.593z"/>
	</g>
</g>
</svg>
